<mxfile host="app.diagrams.net" agent="Mozilla/5.0 (Windows NT 10.0; Win64; x64) AppleWebKit/537.36 (KHTML, like Gecko) Chrome/135.0.0.0 Safari/537.36" version="26.2.10">
  <diagram name="Strona-1" id="jndoiO8fPLQlgARrPGFe">
    <mxGraphModel dx="305" dy="36" grid="0" gridSize="10" guides="1" tooltips="1" connect="1" arrows="1" fold="1" page="0" pageScale="1" pageWidth="827" pageHeight="1169" math="0" shadow="0">
      <root>
        <mxCell id="0" />
        <mxCell id="1" parent="0" />
        <mxCell id="JkYBSw8b7QZmdSKR_h3e-1" value=":Klient" style="swimlane;fontStyle=1;align=center;verticalAlign=top;childLayout=stackLayout;horizontal=1;startSize=26;horizontalStack=0;resizeParent=1;resizeParentMax=0;resizeLast=0;collapsible=1;marginBottom=0;whiteSpace=wrap;html=1;" parent="1" vertex="1">
          <mxGeometry x="945" y="1020" width="196" height="286" as="geometry" />
        </mxCell>
        <mxCell id="JkYBSw8b7QZmdSKR_h3e-2" value="idKlienta = 00123" style="text;strokeColor=none;fillColor=none;align=left;verticalAlign=top;spacingLeft=4;spacingRight=4;overflow=hidden;rotatable=0;points=[[0,0.5],[1,0.5]];portConstraint=eastwest;whiteSpace=wrap;html=1;" parent="JkYBSw8b7QZmdSKR_h3e-1" vertex="1">
          <mxGeometry y="26" width="196" height="26" as="geometry" />
        </mxCell>
        <mxCell id="JkYBSw8b7QZmdSKR_h3e-3" value="ulica = &quot;Magazynowa&quot;" style="text;strokeColor=none;fillColor=none;align=left;verticalAlign=top;spacingLeft=4;spacingRight=4;overflow=hidden;rotatable=0;points=[[0,0.5],[1,0.5]];portConstraint=eastwest;whiteSpace=wrap;html=1;" parent="JkYBSw8b7QZmdSKR_h3e-1" vertex="1">
          <mxGeometry y="52" width="196" height="26" as="geometry" />
        </mxCell>
        <mxCell id="JkYBSw8b7QZmdSKR_h3e-4" value="nrDomu = 32" style="text;strokeColor=none;fillColor=none;align=left;verticalAlign=top;spacingLeft=4;spacingRight=4;overflow=hidden;rotatable=0;points=[[0,0.5],[1,0.5]];portConstraint=eastwest;whiteSpace=wrap;html=1;" parent="JkYBSw8b7QZmdSKR_h3e-1" vertex="1">
          <mxGeometry y="78" width="196" height="26" as="geometry" />
        </mxCell>
        <mxCell id="JkYBSw8b7QZmdSKR_h3e-5" value="nrLokalu = 41" style="text;strokeColor=none;fillColor=none;align=left;verticalAlign=top;spacingLeft=4;spacingRight=4;overflow=hidden;rotatable=0;points=[[0,0.5],[1,0.5]];portConstraint=eastwest;whiteSpace=wrap;html=1;" parent="JkYBSw8b7QZmdSKR_h3e-1" vertex="1">
          <mxGeometry y="104" width="196" height="26" as="geometry" />
        </mxCell>
        <mxCell id="JkYBSw8b7QZmdSKR_h3e-6" value="miasto = &quot;Olsztyn&quot;" style="text;strokeColor=none;fillColor=none;align=left;verticalAlign=top;spacingLeft=4;spacingRight=4;overflow=hidden;rotatable=0;points=[[0,0.5],[1,0.5]];portConstraint=eastwest;whiteSpace=wrap;html=1;" parent="JkYBSw8b7QZmdSKR_h3e-1" vertex="1">
          <mxGeometry y="130" width="196" height="26" as="geometry" />
        </mxCell>
        <mxCell id="JkYBSw8b7QZmdSKR_h3e-7" value="nrTelefonu = &quot;575124842&quot;" style="text;strokeColor=none;fillColor=none;align=left;verticalAlign=top;spacingLeft=4;spacingRight=4;overflow=hidden;rotatable=0;points=[[0,0.5],[1,0.5]];portConstraint=eastwest;whiteSpace=wrap;html=1;" parent="JkYBSw8b7QZmdSKR_h3e-1" vertex="1">
          <mxGeometry y="156" width="196" height="26" as="geometry" />
        </mxCell>
        <mxCell id="JkYBSw8b7QZmdSKR_h3e-8" value="email = &quot;jkowalski@domena.com&quot;" style="text;strokeColor=none;fillColor=none;align=left;verticalAlign=top;spacingLeft=4;spacingRight=4;overflow=hidden;rotatable=0;points=[[0,0.5],[1,0.5]];portConstraint=eastwest;whiteSpace=wrap;html=1;" parent="JkYBSw8b7QZmdSKR_h3e-1" vertex="1">
          <mxGeometry y="182" width="196" height="26" as="geometry" />
        </mxCell>
        <mxCell id="JkYBSw8b7QZmdSKR_h3e-9" value="hasło = &quot;zaq1@WSX&quot;" style="text;strokeColor=none;fillColor=none;align=left;verticalAlign=top;spacingLeft=4;spacingRight=4;overflow=hidden;rotatable=0;points=[[0,0.5],[1,0.5]];portConstraint=eastwest;whiteSpace=wrap;html=1;" parent="JkYBSw8b7QZmdSKR_h3e-1" vertex="1">
          <mxGeometry y="208" width="196" height="26" as="geometry" />
        </mxCell>
        <mxCell id="JkYBSw8b7QZmdSKR_h3e-10" value="imie = &quot;Janusz&quot;" style="text;strokeColor=none;fillColor=none;align=left;verticalAlign=top;spacingLeft=4;spacingRight=4;overflow=hidden;rotatable=0;points=[[0,0.5],[1,0.5]];portConstraint=eastwest;whiteSpace=wrap;html=1;" parent="JkYBSw8b7QZmdSKR_h3e-1" vertex="1">
          <mxGeometry y="234" width="196" height="26" as="geometry" />
        </mxCell>
        <mxCell id="JkYBSw8b7QZmdSKR_h3e-11" value="nazwisko = &quot;Kowalski&quot;" style="text;strokeColor=none;fillColor=none;align=left;verticalAlign=top;spacingLeft=4;spacingRight=4;overflow=hidden;rotatable=0;points=[[0,0.5],[1,0.5]];portConstraint=eastwest;whiteSpace=wrap;html=1;" parent="JkYBSw8b7QZmdSKR_h3e-1" vertex="1">
          <mxGeometry y="260" width="196" height="26" as="geometry" />
        </mxCell>
        <mxCell id="JkYBSw8b7QZmdSKR_h3e-12" value=":Kurier" style="swimlane;fontStyle=1;align=center;verticalAlign=top;childLayout=stackLayout;horizontal=1;startSize=26;horizontalStack=0;resizeParent=1;resizeParentMax=0;resizeLast=0;collapsible=1;marginBottom=0;whiteSpace=wrap;html=1;" parent="1" vertex="1">
          <mxGeometry x="597" y="1406" width="187" height="156" as="geometry" />
        </mxCell>
        <mxCell id="JkYBSw8b7QZmdSKR_h3e-13" value="idKuriera = 50194" style="text;strokeColor=none;fillColor=none;align=left;verticalAlign=top;spacingLeft=4;spacingRight=4;overflow=hidden;rotatable=0;points=[[0,0.5],[1,0.5]];portConstraint=eastwest;whiteSpace=wrap;html=1;" parent="JkYBSw8b7QZmdSKR_h3e-12" vertex="1">
          <mxGeometry y="26" width="187" height="26" as="geometry" />
        </mxCell>
        <mxCell id="JkYBSw8b7QZmdSKR_h3e-14" value="email = &quot;kurier@domena.com&quot;" style="text;strokeColor=none;fillColor=none;align=left;verticalAlign=top;spacingLeft=4;spacingRight=4;overflow=hidden;rotatable=0;points=[[0,0.5],[1,0.5]];portConstraint=eastwest;whiteSpace=wrap;html=1;" parent="JkYBSw8b7QZmdSKR_h3e-12" vertex="1">
          <mxGeometry y="52" width="187" height="26" as="geometry" />
        </mxCell>
        <mxCell id="JkYBSw8b7QZmdSKR_h3e-15" value="hasło = &quot;zaq1@WSX&quot;" style="text;strokeColor=none;fillColor=none;align=left;verticalAlign=top;spacingLeft=4;spacingRight=4;overflow=hidden;rotatable=0;points=[[0,0.5],[1,0.5]];portConstraint=eastwest;whiteSpace=wrap;html=1;" parent="JkYBSw8b7QZmdSKR_h3e-12" vertex="1">
          <mxGeometry y="78" width="187" height="26" as="geometry" />
        </mxCell>
        <mxCell id="JkYBSw8b7QZmdSKR_h3e-16" value="imie = &quot;Adam&quot;" style="text;strokeColor=none;fillColor=none;align=left;verticalAlign=top;spacingLeft=4;spacingRight=4;overflow=hidden;rotatable=0;points=[[0,0.5],[1,0.5]];portConstraint=eastwest;whiteSpace=wrap;html=1;" parent="JkYBSw8b7QZmdSKR_h3e-12" vertex="1">
          <mxGeometry y="104" width="187" height="26" as="geometry" />
        </mxCell>
        <mxCell id="JkYBSw8b7QZmdSKR_h3e-17" value="nazwisko = &quot;Nowak&quot;" style="text;strokeColor=none;fillColor=none;align=left;verticalAlign=top;spacingLeft=4;spacingRight=4;overflow=hidden;rotatable=0;points=[[0,0.5],[1,0.5]];portConstraint=eastwest;whiteSpace=wrap;html=1;" parent="JkYBSw8b7QZmdSKR_h3e-12" vertex="1">
          <mxGeometry y="130" width="187" height="26" as="geometry" />
        </mxCell>
        <mxCell id="JkYBSw8b7QZmdSKR_h3e-18" value=":Przesylka" style="swimlane;fontStyle=1;align=center;verticalAlign=top;childLayout=stackLayout;horizontal=1;startSize=26;horizontalStack=0;resizeParent=1;resizeParentMax=0;resizeLast=0;collapsible=1;marginBottom=0;whiteSpace=wrap;html=1;" parent="1" vertex="1">
          <mxGeometry x="897" y="1380" width="292" height="208" as="geometry" />
        </mxCell>
        <mxCell id="JkYBSw8b7QZmdSKR_h3e-19" value="nrPrzesylki = 591930691" style="text;strokeColor=none;fillColor=none;align=left;verticalAlign=top;spacingLeft=4;spacingRight=4;overflow=hidden;rotatable=0;points=[[0,0.5],[1,0.5]];portConstraint=eastwest;whiteSpace=wrap;html=1;" parent="JkYBSw8b7QZmdSKR_h3e-18" vertex="1">
          <mxGeometry y="26" width="292" height="26" as="geometry" />
        </mxCell>
        <mxCell id="JkYBSw8b7QZmdSKR_h3e-20" value="waga = 4.2" style="text;strokeColor=none;fillColor=none;align=left;verticalAlign=top;spacingLeft=4;spacingRight=4;overflow=hidden;rotatable=0;points=[[0,0.5],[1,0.5]];portConstraint=eastwest;whiteSpace=wrap;html=1;" parent="JkYBSw8b7QZmdSKR_h3e-18" vertex="1">
          <mxGeometry y="52" width="292" height="26" as="geometry" />
        </mxCell>
        <mxCell id="JkYBSw8b7QZmdSKR_h3e-21" value="kodAutomatuPrzesylkowego= OL0034" style="text;strokeColor=none;fillColor=none;align=left;verticalAlign=top;spacingLeft=4;spacingRight=4;overflow=hidden;rotatable=0;points=[[0,0.5],[1,0.5]];portConstraint=eastwest;whiteSpace=wrap;html=1;" parent="JkYBSw8b7QZmdSKR_h3e-18" vertex="1">
          <mxGeometry y="78" width="292" height="26" as="geometry" />
        </mxCell>
        <mxCell id="JkYBSw8b7QZmdSKR_h3e-22" value="status = &quot;Dostarczona do automatu przesyłkowego&quot;" style="text;strokeColor=none;fillColor=none;align=left;verticalAlign=top;spacingLeft=4;spacingRight=4;overflow=hidden;rotatable=0;points=[[0,0.5],[1,0.5]];portConstraint=eastwest;whiteSpace=wrap;html=1;" parent="JkYBSw8b7QZmdSKR_h3e-18" vertex="1">
          <mxGeometry y="104" width="292" height="26" as="geometry" />
        </mxCell>
        <mxCell id="JkYBSw8b7QZmdSKR_h3e-34" value="rozmiar = &quot;40x40x20&quot;" style="text;strokeColor=none;fillColor=none;align=left;verticalAlign=top;spacingLeft=4;spacingRight=4;overflow=hidden;rotatable=0;points=[[0,0.5],[1,0.5]];portConstraint=eastwest;whiteSpace=wrap;html=1;" parent="JkYBSw8b7QZmdSKR_h3e-18" vertex="1">
          <mxGeometry y="130" width="292" height="26" as="geometry" />
        </mxCell>
        <mxCell id="JkYBSw8b7QZmdSKR_h3e-23" value="dataWysyłki = &quot;2025-04-06&quot;" style="text;strokeColor=none;fillColor=none;align=left;verticalAlign=top;spacingLeft=4;spacingRight=4;overflow=hidden;rotatable=0;points=[[0,0.5],[1,0.5]];portConstraint=eastwest;whiteSpace=wrap;html=1;" parent="JkYBSw8b7QZmdSKR_h3e-18" vertex="1">
          <mxGeometry y="156" width="292" height="26" as="geometry" />
        </mxCell>
        <mxCell id="JkYBSw8b7QZmdSKR_h3e-24" value="dataDostarczenia = &quot;2025-04-08&quot;" style="text;strokeColor=none;fillColor=none;align=left;verticalAlign=top;spacingLeft=4;spacingRight=4;overflow=hidden;rotatable=0;points=[[0,0.5],[1,0.5]];portConstraint=eastwest;whiteSpace=wrap;html=1;" parent="JkYBSw8b7QZmdSKR_h3e-18" vertex="1">
          <mxGeometry y="182" width="292" height="26" as="geometry" />
        </mxCell>
        <mxCell id="JkYBSw8b7QZmdSKR_h3e-25" value=":Płatność" style="swimlane;fontStyle=1;align=center;verticalAlign=top;childLayout=stackLayout;horizontal=1;startSize=26;horizontalStack=0;resizeParent=1;resizeParentMax=0;resizeLast=0;collapsible=1;marginBottom=0;whiteSpace=wrap;html=1;" parent="1" vertex="1">
          <mxGeometry x="637" y="1085" width="223" height="156" as="geometry" />
        </mxCell>
        <mxCell id="JkYBSw8b7QZmdSKR_h3e-26" value="idPłatnosci = 1496123890" style="text;strokeColor=none;fillColor=none;align=left;verticalAlign=top;spacingLeft=4;spacingRight=4;overflow=hidden;rotatable=0;points=[[0,0.5],[1,0.5]];portConstraint=eastwest;whiteSpace=wrap;html=1;" parent="JkYBSw8b7QZmdSKR_h3e-25" vertex="1">
          <mxGeometry y="26" width="223" height="26" as="geometry" />
        </mxCell>
        <mxCell id="JkYBSw8b7QZmdSKR_h3e-27" value="kwota = 46,19" style="text;strokeColor=none;fillColor=none;align=left;verticalAlign=top;spacingLeft=4;spacingRight=4;overflow=hidden;rotatable=0;points=[[0,0.5],[1,0.5]];portConstraint=eastwest;whiteSpace=wrap;html=1;" parent="JkYBSw8b7QZmdSKR_h3e-25" vertex="1">
          <mxGeometry y="52" width="223" height="26" as="geometry" />
        </mxCell>
        <mxCell id="JkYBSw8b7QZmdSKR_h3e-28" value="data = &quot;2025-04-10&quot;" style="text;strokeColor=none;fillColor=none;align=left;verticalAlign=top;spacingLeft=4;spacingRight=4;overflow=hidden;rotatable=0;points=[[0,0.5],[1,0.5]];portConstraint=eastwest;whiteSpace=wrap;html=1;" parent="JkYBSw8b7QZmdSKR_h3e-25" vertex="1">
          <mxGeometry y="78" width="223" height="26" as="geometry" />
        </mxCell>
        <mxCell id="JkYBSw8b7QZmdSKR_h3e-29" value="metodaPlatnosci = &quot;karta płatnicza&quot;" style="text;strokeColor=none;fillColor=none;align=left;verticalAlign=top;spacingLeft=4;spacingRight=4;overflow=hidden;rotatable=0;points=[[0,0.5],[1,0.5]];portConstraint=eastwest;whiteSpace=wrap;html=1;" parent="JkYBSw8b7QZmdSKR_h3e-25" vertex="1">
          <mxGeometry y="104" width="223" height="26" as="geometry" />
        </mxCell>
        <mxCell id="JkYBSw8b7QZmdSKR_h3e-30" value="potwierdzenie = 1" style="text;strokeColor=none;fillColor=none;align=left;verticalAlign=top;spacingLeft=4;spacingRight=4;overflow=hidden;rotatable=0;points=[[0,0.5],[1,0.5]];portConstraint=eastwest;whiteSpace=wrap;html=1;" parent="JkYBSw8b7QZmdSKR_h3e-25" vertex="1">
          <mxGeometry y="130" width="223" height="26" as="geometry" />
        </mxCell>
        <mxCell id="JkYBSw8b7QZmdSKR_h3e-31" value="" style="endArrow=none;html=1;rounded=0;" parent="1" source="JkYBSw8b7QZmdSKR_h3e-18" target="JkYBSw8b7QZmdSKR_h3e-1" edge="1">
          <mxGeometry width="50" height="50" relative="1" as="geometry">
            <mxPoint x="1225" y="1210" as="sourcePoint" />
            <mxPoint x="1275" y="1160" as="targetPoint" />
          </mxGeometry>
        </mxCell>
        <mxCell id="JkYBSw8b7QZmdSKR_h3e-32" value="" style="endArrow=none;html=1;rounded=0;" parent="1" source="JkYBSw8b7QZmdSKR_h3e-1" target="JkYBSw8b7QZmdSKR_h3e-25" edge="1">
          <mxGeometry width="50" height="50" relative="1" as="geometry">
            <mxPoint x="1225" y="1210" as="sourcePoint" />
            <mxPoint x="1275" y="1160" as="targetPoint" />
          </mxGeometry>
        </mxCell>
        <mxCell id="JkYBSw8b7QZmdSKR_h3e-33" value="" style="endArrow=none;html=1;rounded=0;" parent="1" source="JkYBSw8b7QZmdSKR_h3e-18" target="JkYBSw8b7QZmdSKR_h3e-12" edge="1">
          <mxGeometry width="50" height="50" relative="1" as="geometry">
            <mxPoint x="1075" y="1420.9818181818182" as="sourcePoint" />
            <mxPoint x="1275" y="1360" as="targetPoint" />
          </mxGeometry>
        </mxCell>
      </root>
    </mxGraphModel>
  </diagram>
</mxfile>
